<svg width="400" height="80" viewBox="0 0 400 80" fill="none" xmlns="http://www.w3.org/2000/svg">
<g clip-path="url(#clip0)">
<path d="M102.052 58.55C99.3384 58.55 96.8267 58.0733 94.5167 57.12C92.2067 56.13 90.2084 54.755 88.5217 52.995C86.835 51.1983 85.515 49.1083 84.5617 46.725C83.645 44.305 83.1867 41.665 83.1867 38.805C83.1867 35.9817 83.645 33.3783 84.5617 30.995C85.515 28.575 86.835 26.485 88.5217 24.725C90.2084 22.9283 92.2067 21.535 94.5167 20.545C96.8267 19.555 99.3384 19.06 102.052 19.06C104.765 19.06 107.277 19.555 109.587 20.545C111.897 21.535 113.895 22.9283 115.582 24.725C117.305 26.485 118.625 28.575 119.542 30.995C120.495 33.3783 120.972 35.9817 120.972 38.805C120.972 41.665 120.495 44.305 119.542 46.725C118.625 49.1083 117.305 51.1983 115.582 52.995C113.895 54.755 111.897 56.13 109.587 57.12C107.277 58.0733 104.765 58.55 102.052 58.55ZM102.052 54.26C104.838 54.26 107.313 53.6 109.477 52.28C111.64 50.96 113.345 49.145 114.592 46.835C115.838 44.4883 116.462 41.8117 116.462 38.805C116.462 35.835 115.838 33.195 114.592 30.885C113.345 28.5383 111.64 26.705 109.477 25.385C107.313 24.0283 104.838 23.35 102.052 23.35C99.265 23.35 96.79 24.0283 94.6267 25.385C92.4634 26.705 90.7584 28.5383 89.5117 30.885C88.3017 33.195 87.6967 35.835 87.6967 38.805C87.6967 41.8117 88.3017 44.4883 89.5117 46.835C90.7584 49.145 92.4634 50.96 94.6267 52.28C96.79 53.6 99.265 54.26 102.052 54.26ZM124.94 58V29.235H129.065L129.175 34.13C130.055 32.59 131.412 31.2883 133.245 30.225C135.115 29.1617 137.077 28.63 139.13 28.63C142.32 28.63 144.722 29.62 146.335 31.6C147.985 33.5433 148.81 36.5133 148.81 40.51V58H144.575V40.785C144.575 35.175 142.32 32.425 137.81 32.535C136.124 32.535 134.62 32.9017 133.3 33.635C132.017 34.3683 130.99 35.34 130.22 36.55C129.487 37.76 129.12 39.08 129.12 40.51V58H124.94ZM154.043 58V17.3H158.223V58H154.043ZM167.625 70.65L172.52 58.77L159.155 29.235H163.885L173.73 51.235C173.877 51.565 174.023 51.9317 174.17 52.335C174.317 52.7017 174.463 53.0867 174.61 53.49C174.72 53.1967 174.83 52.9033 174.94 52.61C175.087 52.28 175.215 51.95 175.325 51.62L183.905 29.235H188.69L177.085 58L172.135 70.65H167.625ZM204.643 58V19.5H208.878L222.628 41.885L236.598 19.5H240.503V58H236.158V40.455C236.158 37.8517 236.195 35.4683 236.268 33.305C236.341 31.1417 236.451 29.0333 236.598 26.98L223.948 46.835H220.978L208.548 26.98C208.731 28.9233 208.841 30.9767 208.878 33.14C208.951 35.2667 208.988 37.705 208.988 40.455V58H204.643ZM252.295 70.65L257.19 58.77L243.825 29.235H248.555L258.4 51.235C258.547 51.565 258.693 51.9317 258.84 52.335C258.987 52.7017 259.133 53.0867 259.28 53.49C259.39 53.1967 259.5 52.9033 259.61 52.61C259.757 52.28 259.885 51.95 259.995 51.62L268.575 29.235H273.36L261.755 58L256.805 70.65H252.295ZM305.263 58.55C301.596 58.55 298.333 57.7067 295.473 56.02C292.613 54.3333 290.376 52.005 288.763 49.035C287.15 46.0283 286.343 42.6 286.343 38.75C286.343 35.9633 286.82 33.3783 287.773 30.995C288.726 28.6117 290.046 26.54 291.733 24.78C293.456 23.02 295.455 21.645 297.728 20.655C300.038 19.665 302.531 19.17 305.208 19.17C307.005 19.17 308.783 19.4633 310.543 20.05C312.303 20.6367 313.916 21.425 315.383 22.415C316.886 23.405 318.115 24.5417 319.068 25.825L316.098 28.96C314.705 27.2733 313.036 25.9533 311.093 25C309.15 24.01 307.188 23.515 305.208 23.515C302.458 23.515 300.001 24.175 297.838 25.495C295.675 26.815 293.97 28.63 292.723 30.94C291.476 33.2133 290.853 35.8167 290.853 38.75C290.853 41.7933 291.476 44.4883 292.723 46.835C294.006 49.145 295.766 50.9417 298.003 52.225C300.24 53.5083 302.825 54.15 305.758 54.15C307.775 54.15 309.718 53.7467 311.588 52.94C313.495 52.0967 315.016 50.9967 316.153 49.64L318.353 53.27C317.473 54.2967 316.318 55.2133 314.888 56.02C313.495 56.79 311.955 57.4133 310.268 57.89C308.618 58.33 306.95 58.55 305.263 58.55ZM333.355 58.55C330.861 58.55 328.606 57.9083 326.59 56.625C324.573 55.305 322.978 53.5267 321.805 51.29C320.631 49.0167 320.045 46.45 320.045 43.59C320.045 40.6933 320.65 38.1267 321.86 35.89C323.07 33.6167 324.701 31.8383 326.755 30.555C328.808 29.2717 331.1 28.63 333.63 28.63C335.94 28.63 337.993 29.1617 339.79 30.225C341.623 31.2883 343.016 32.6633 343.97 34.35L344.08 29.235H348.26V58H344.025V52.885C342.998 54.4983 341.531 55.855 339.625 56.955C337.718 58.0183 335.628 58.55 333.355 58.55ZM334.29 54.535C336.196 54.535 337.901 54.0767 339.405 53.16C340.908 52.2067 342.081 50.905 342.925 49.255C343.805 47.605 344.245 45.6983 344.245 43.535C344.245 41.445 343.805 39.575 342.925 37.925C342.081 36.275 340.908 34.9917 339.405 34.075C337.901 33.1217 336.196 32.645 334.29 32.645C332.346 32.645 330.623 33.1217 329.12 34.075C327.653 34.9917 326.498 36.275 325.655 37.925C324.811 39.575 324.39 41.445 324.39 43.535C324.39 45.6617 324.811 47.5683 325.655 49.255C326.498 50.905 327.653 52.2067 329.12 53.16C330.623 54.0767 332.346 54.535 334.29 54.535ZM362.951 58.55C360.458 58.55 358.239 58.11 356.296 57.23C354.389 56.3133 352.849 55.085 351.676 53.545L354.646 50.96C356.736 53.5633 359.614 54.865 363.281 54.865C365.041 54.865 366.471 54.48 367.571 53.71C368.708 52.9033 369.276 51.8033 369.276 50.41C369.276 49.2367 368.763 48.265 367.736 47.495C367.259 47.1283 366.581 46.78 365.701 46.45C364.821 46.12 363.758 45.7717 362.511 45.405C360.458 44.855 358.753 44.2683 357.396 43.645C356.039 43.0217 354.976 42.3067 354.206 41.5C353.106 40.2533 352.556 38.695 352.556 36.825C352.556 35.2483 352.978 33.855 353.821 32.645C354.701 31.3983 355.893 30.4267 357.396 29.73C358.936 28.9967 360.659 28.63 362.566 28.63C364.619 28.63 366.599 29.07 368.506 29.95C370.449 30.7933 372.026 31.8933 373.236 33.25L370.651 36.055C369.551 34.9183 368.323 34.0017 366.966 33.305C365.646 32.6083 364.253 32.26 362.786 32.26C360.989 32.26 359.541 32.6633 358.441 33.47C357.378 34.2767 356.846 35.34 356.846 36.66C356.846 37.7233 357.268 38.6033 358.111 39.3C358.624 39.7033 359.339 40.0883 360.256 40.455C361.209 40.785 362.383 41.1333 363.776 41.5C365.353 41.94 366.709 42.3983 367.846 42.875C368.983 43.315 369.918 43.8467 370.651 44.47C372.484 45.8633 373.401 47.77 373.401 50.19C373.401 51.8033 372.943 53.2517 372.026 54.535C371.109 55.7817 369.863 56.7717 368.286 57.505C366.709 58.2017 364.931 58.55 362.951 58.55ZM381.019 58V33.25H374.584V29.235H381.019V21.755H385.199V29.235H392.404V33.25H385.199V58H381.019Z" fill="white"/>
<circle cx="40.1779" cy="37.1777" r="32.7778" stroke="white" stroke-width="2"/>
<circle cx="40.1779" cy="37.1778" r="25.6667" stroke="white" stroke-width="2"/>
<path d="M21.25 55.3579L31.3029 12.625L42.4938 63.25L59.375 19.7471" stroke="white" stroke-width="2" stroke-linecap="round" stroke-linejoin="round"/>
<path d="M61.511 37.1778C61.511 42.4797 57.213 46.7778 51.911 46.7778C46.6091 46.7778 42.311 42.4797 42.311 37.1778C42.311 31.8758 46.6091 27.5778 51.911 27.5778C57.213 27.5778 61.511 31.8758 61.511 37.1778Z" fill="white"/>
<circle cx="27.3778" cy="37.1778" r="5.33333" fill="white"/>
<line x1="32" y1="35.8889" x2="42.6667" y2="35.8889" stroke="white" stroke-width="4"/>
<line x1="39.8889" y1="36.4667" x2="39.8889" y2="25.8" stroke="white" stroke-width="2"/>
<line x1="33.4888" y1="46.0667" x2="33.4888" y2="37.5334" stroke="white" stroke-width="2"/>
</g>
<defs>
<clipPath id="clip0">
<rect width="400" height="80" fill="white"/>
</clipPath>
</defs>
</svg>
