<svg width="100" height="48" viewBox="0 0 100 48" fill="none" xmlns="http://www.w3.org/2000/svg">
<g clip-path="url(#clip0)">
<circle cx="24.1068" cy="24.1066" r="19.2667" stroke="#FD3E49" stroke-width="2"/>
<circle cx="24.1067" cy="24.1067" r="15.5" stroke="#FD3E49"/>
<path d="M12.75 35.0147L18.7817 9.375L25.4963 39.75L35.625 13.6483" stroke="#FD3E49" stroke-linecap="round" stroke-linejoin="round"/>
<path d="M36.9067 24.1067C36.9067 27.2878 34.3279 29.8667 31.1467 29.8667C27.9656 29.8667 25.3867 27.2878 25.3867 24.1067C25.3867 20.9255 27.9656 18.3467 31.1467 18.3467C34.3279 18.3467 36.9067 20.9255 36.9067 24.1067Z" fill="#FD3E49"/>
<circle cx="16.4266" cy="24.1067" r="3.2" fill="#FD3E49"/>
<path d="M63.2498 21.14C62.5592 21.14 61.9198 21.0187 61.3318 20.776C60.7438 20.524 60.2352 20.174 59.8058 19.726C59.3765 19.2687 59.0405 18.7367 58.7978 18.13C58.5645 17.514 58.4478 16.842 58.4478 16.114C58.4478 15.3953 58.5645 14.7327 58.7978 14.126C59.0405 13.51 59.3765 12.978 59.8058 12.53C60.2352 12.0727 60.7438 11.718 61.3318 11.466C61.9198 11.214 62.5592 11.088 63.2498 11.088C63.9405 11.088 64.5798 11.214 65.1678 11.466C65.7558 11.718 66.2645 12.0727 66.6938 12.53C67.1325 12.978 67.4685 13.51 67.7018 14.126C67.9445 14.7327 68.0658 15.3953 68.0658 16.114C68.0658 16.842 67.9445 17.514 67.7018 18.13C67.4685 18.7367 67.1325 19.2687 66.6938 19.726C66.2645 20.174 65.7558 20.524 65.1678 20.776C64.5798 21.0187 63.9405 21.14 63.2498 21.14ZM63.2498 20.048C63.9592 20.048 64.5892 19.88 65.1398 19.544C65.6905 19.208 66.1245 18.746 66.4418 18.158C66.7592 17.5607 66.9178 16.8793 66.9178 16.114C66.9178 15.358 66.7592 14.686 66.4418 14.098C66.1245 13.5007 65.6905 13.034 65.1398 12.698C64.5892 12.3527 63.9592 12.18 63.2498 12.18C62.5405 12.18 61.9105 12.3527 61.3598 12.698C60.8092 13.034 60.3752 13.5007 60.0578 14.098C59.7498 14.686 59.5958 15.358 59.5958 16.114C59.5958 16.8793 59.7498 17.5607 60.0578 18.158C60.3752 18.746 60.8092 19.208 61.3598 19.544C61.9105 19.88 62.5405 20.048 63.2498 20.048ZM69.356 21V13.678H70.406L70.434 14.924C70.658 14.532 71.0034 14.2007 71.47 13.93C71.946 13.6593 72.4454 13.524 72.968 13.524C73.78 13.524 74.3914 13.776 74.802 14.28C75.222 14.7747 75.432 15.5307 75.432 16.548V21H74.354V16.618C74.354 15.19 73.78 14.49 72.632 14.518C72.2027 14.518 71.82 14.6113 71.484 14.798C71.1574 14.9847 70.896 15.232 70.7 15.54C70.5134 15.848 70.42 16.184 70.42 16.548V21H69.356ZM77.0441 21V10.64H78.1081V21H77.0441ZM80.7812 24.22L82.0272 21.196L78.6252 13.678H79.8292L82.3352 19.278C82.3726 19.362 82.4099 19.4553 82.4472 19.558C82.4846 19.6513 82.5219 19.7493 82.5592 19.852C82.5872 19.7773 82.6152 19.7027 82.6432 19.628C82.6806 19.544 82.7132 19.46 82.7412 19.376L84.9252 13.678H86.1432L83.1892 21L81.9292 24.22H80.7812ZM49.5955 36V26.2H50.6735L54.1735 31.898L57.7295 26.2H58.7235V36H57.6175V31.534C57.6175 30.8713 57.6268 30.2647 57.6455 29.714C57.6642 29.1633 57.6922 28.6267 57.7295 28.104L54.5095 33.158H53.7535L50.5895 28.104C50.6362 28.5987 50.6642 29.1213 50.6735 29.672C50.6922 30.2133 50.7015 30.834 50.7015 31.534V36H49.5955ZM62.0051 39.22L63.2511 36.196L59.8491 28.678H61.0531L63.5591 34.278C63.5964 34.362 63.6338 34.4553 63.6711 34.558C63.7084 34.6513 63.7458 34.7493 63.7831 34.852C63.8111 34.7773 63.8391 34.7027 63.8671 34.628C63.9044 34.544 63.9371 34.46 63.9651 34.376L66.1491 28.678H67.3671L64.4131 36L63.1531 39.22H62.0051ZM72.544 36.14C71.6107 36.14 70.78 35.9253 70.052 35.496C69.324 35.0667 68.7547 34.474 68.344 33.718C67.9334 32.9527 67.728 32.08 67.728 31.1C67.728 30.3907 67.8494 29.7327 68.092 29.126C68.3347 28.5193 68.6707 27.992 69.1 27.544C69.5387 27.096 70.0474 26.746 70.626 26.494C71.214 26.242 71.8487 26.116 72.53 26.116C72.9874 26.116 73.44 26.1907 73.888 26.34C74.336 26.4893 74.7467 26.69 75.12 26.942C75.5027 27.194 75.8154 27.4833 76.058 27.81L75.302 28.608C74.9474 28.1787 74.5227 27.8427 74.028 27.6C73.5334 27.348 73.034 27.222 72.53 27.222C71.83 27.222 71.2047 27.39 70.654 27.726C70.1034 28.062 69.6694 28.524 69.352 29.112C69.0347 29.6907 68.876 30.3533 68.876 31.1C68.876 31.8747 69.0347 32.5607 69.352 33.158C69.6787 33.746 70.1267 34.2033 70.696 34.53C71.2654 34.8567 71.9234 35.02 72.67 35.02C73.1834 35.02 73.678 34.9173 74.154 34.712C74.6394 34.4973 75.0267 34.2173 75.316 33.872L75.876 34.796C75.652 35.0573 75.358 35.2907 74.994 35.496C74.6394 35.692 74.2474 35.8507 73.818 35.972C73.398 36.084 72.9734 36.14 72.544 36.14ZM79.9746 36.14C79.34 36.14 78.766 35.9767 78.2526 35.65C77.7393 35.314 77.3333 34.8613 77.0346 34.292C76.736 33.7133 76.5866 33.06 76.5866 32.332C76.5866 31.5947 76.7406 30.9413 77.0486 30.372C77.3566 29.7933 77.772 29.3407 78.2946 29.014C78.8173 28.6873 79.4006 28.524 80.0446 28.524C80.6326 28.524 81.1553 28.6593 81.6126 28.93C82.0793 29.2007 82.434 29.5507 82.6766 29.98L82.7046 28.678H83.7686V36H82.6906V34.698C82.4293 35.1087 82.056 35.454 81.5706 35.734C81.0853 36.0047 80.5533 36.14 79.9746 36.14ZM80.2126 35.118C80.698 35.118 81.132 35.0013 81.5146 34.768C81.8973 34.5253 82.196 34.194 82.4106 33.774C82.6346 33.354 82.7466 32.8687 82.7466 32.318C82.7466 31.786 82.6346 31.31 82.4106 30.89C82.196 30.47 81.8973 30.1433 81.5146 29.91C81.132 29.6673 80.698 29.546 80.2126 29.546C79.718 29.546 79.2793 29.6673 78.8966 29.91C78.5233 30.1433 78.2293 30.47 78.0146 30.89C77.8 31.31 77.6926 31.786 77.6926 32.318C77.6926 32.8593 77.8 33.3447 78.0146 33.774C78.2293 34.194 78.5233 34.5253 78.8966 34.768C79.2793 35.0013 79.718 35.118 80.2126 35.118ZM87.7883 36.14C87.1536 36.14 86.5889 36.028 86.0943 35.804C85.6089 35.5707 85.2169 35.258 84.9183 34.866L85.6743 34.208C86.2063 34.8707 86.9389 35.202 87.8723 35.202C88.3203 35.202 88.6843 35.104 88.9643 34.908C89.2536 34.7027 89.3983 34.4227 89.3983 34.068C89.3983 33.7693 89.2676 33.522 89.0063 33.326C88.8849 33.2327 88.7123 33.144 88.4883 33.06C88.2643 32.976 87.9936 32.8873 87.6763 32.794C87.1536 32.654 86.7196 32.5047 86.3743 32.346C86.0289 32.1873 85.7583 32.0053 85.5623 31.8C85.2823 31.4827 85.1423 31.086 85.1423 30.61C85.1423 30.2087 85.2496 29.854 85.4643 29.546C85.6883 29.2287 85.9916 28.9813 86.3743 28.804C86.7663 28.6173 87.2049 28.524 87.6903 28.524C88.2129 28.524 88.7169 28.636 89.2023 28.86C89.6969 29.0747 90.0983 29.3547 90.4063 29.7L89.7483 30.414C89.4683 30.1247 89.1556 29.8913 88.8103 29.714C88.4743 29.5367 88.1196 29.448 87.7463 29.448C87.2889 29.448 86.9203 29.5507 86.6403 29.756C86.3696 29.9613 86.2343 30.232 86.2343 30.568C86.2343 30.8387 86.3416 31.0627 86.5563 31.24C86.6869 31.3427 86.8689 31.4407 87.1023 31.534C87.3449 31.618 87.6436 31.7067 87.9983 31.8C88.3996 31.912 88.7449 32.0287 89.0343 32.15C89.3236 32.262 89.5616 32.3973 89.7483 32.556C90.2149 32.9107 90.4483 33.396 90.4483 34.012C90.4483 34.4227 90.3316 34.7913 90.0983 35.118C89.8649 35.4353 89.5476 35.6873 89.1463 35.874C88.7449 36.0513 88.2923 36.14 87.7883 36.14ZM92.6675 36V29.7H91.0295V28.678H92.6675V26.774H93.7315V28.678H95.5655V29.7H93.7315V36H92.6675Z" fill="#FD3E49"/>
<path d="M59 16H50" stroke="#FD3E49" stroke-width="2"/>
<circle cx="63" cy="16" r="2" fill="#FD3E49"/>
</g>
<defs>
<clipPath id="clip0">
<rect width="100" height="48" fill="white"/>
</clipPath>
</defs>
</svg>
