<svg width="256" height="256" viewBox="0 0 256 256" fill="none" xmlns="http://www.w3.org/2000/svg">
<circle cx="128.569" cy="128.569" r="104.589" stroke="white" stroke-width="7"/>
<circle cx="128.569" cy="128.569" r="81.8333" stroke="white" stroke-width="7"/>
<path d="M71.6799 182.044L101.831 55.7511L135.395 205.369L186.027 76.8" stroke="white" stroke-width="4" stroke-linecap="round" stroke-linejoin="round"/>
<path d="M196.836 128.569C196.836 145.535 183.082 159.289 166.116 159.289C149.149 159.289 135.396 145.535 135.396 128.569C135.396 111.603 149.149 97.8489 166.116 97.8489C183.082 97.8489 196.836 111.603 196.836 128.569Z" fill="white"/>
<circle cx="87.6089" cy="128.569" r="17.0667" fill="white"/>
<line x1="102.4" y1="128.844" x2="136.533" y2="128.844" stroke="white" stroke-width="4"/>
<line x1="129.844" y1="126.293" x2="129.844" y2="92.16" stroke="white" stroke-width="2"/>
<line x1="125.293" y1="149.049" x2="125.293" y2="126.293" stroke="white" stroke-width="2"/>
<line x1="109.365" y1="157.013" x2="109.365" y2="129.707" stroke="white" stroke-width="2"/>
</svg>
