<svg width="230" height="230" viewBox="0 0 230 230" fill="none" xmlns="http://www.w3.org/2000/svg">
<path d="M20 2H205C214.941 2 223 10.0589 223 20V205C223 214.941 214.941 223 205 223H20C10.0589 223 2 214.941 2 205V20C2 10.0589 10.0589 2 20 2Z" fill="#FF8738" stroke="white" stroke-width="4"/>
<circle cx="113" cy="113" r="91.5" stroke="white" stroke-width="7"/>
<circle cx="113" cy="113" r="71.5" stroke="white" stroke-width="7"/>
<path d="M63 160L89.5 49L119 180.5L163.5 67.5" stroke="white" stroke-width="4" stroke-linecap="round" stroke-linejoin="round"/>
<path d="M173 113C173 127.912 160.912 140 146 140C131.088 140 119 127.912 119 113C119 98.0883 131.088 86 146 86C160.912 86 173 98.0883 173 113Z" fill="white"/>
<circle cx="77" cy="113" r="15" fill="white"/>
<line x1="90" y1="113" x2="120" y2="113" stroke="white" stroke-width="4"/>
<line x1="114" y1="111" x2="114" y2="99" stroke="white" stroke-width="2"/>
<line x1="110" y1="125" x2="110" y2="113" stroke="white" stroke-width="2"/>
<line x1="96" y1="125" x2="96" y2="113" stroke="white" stroke-width="2"/>
</svg>
