<svg width="700" height="230" viewBox="0 0 700 230" fill="none" xmlns="http://www.w3.org/2000/svg">
<g clip-path="url(#clip0)">
<path d="M271.355 78.936C284.963 78.936 294.467 68.352 294.467 51.288C294.467 34.224 284.963 24 271.355 24C257.747 24 248.315 34.224 248.315 51.288C248.315 68.352 257.747 78.936 271.355 78.936ZM271.355 71.664C262.571 71.664 256.883 63.672 256.883 51.288C256.883 38.832 262.571 31.272 271.355 31.272C280.139 31.272 285.899 38.832 285.899 51.288C285.899 63.672 280.139 71.664 271.355 71.664ZM304.756 78H313.036V49.92C316.492 46.392 319.012 44.52 322.684 44.52C327.364 44.52 329.38 47.256 329.38 54.096V78H337.66V53.088C337.66 43.008 333.916 37.392 325.492 37.392C320.092 37.392 316.06 40.344 312.388 43.872H312.172L311.524 38.4H304.756V78ZM357.894 78.936C359.982 78.936 361.35 78.648 362.358 78.288L361.278 72.024C360.558 72.168 360.27 72.168 359.91 72.168C358.902 72.168 357.966 71.376 357.966 69.144V20.616H349.686V68.712C349.686 75.12 351.918 78.936 357.894 78.936ZM372.931 94.56C381.283 94.56 385.459 88.872 388.555 80.376L403.099 38.4H395.035L388.699 58.776C387.691 62.376 386.611 66.336 385.603 69.936H385.243C384.019 66.264 382.795 62.304 381.643 58.776L374.299 38.4H365.803L381.499 77.712L380.707 80.448C379.267 84.696 376.747 87.864 372.427 87.864C371.419 87.864 370.267 87.504 369.547 87.288L367.963 93.768C369.331 94.272 370.915 94.56 372.931 94.56ZM427.187 78H434.675V51.792C434.675 47.04 434.027 40.2 433.667 35.376H433.955L438.131 47.616L447.419 72.888H452.603L461.819 47.616L466.067 35.376H466.355C465.923 40.2 465.275 47.04 465.275 51.792V78H473.051V24.936H463.403L453.827 51.792C452.603 55.32 451.595 58.92 450.371 62.448H450.011C448.787 58.92 447.707 55.32 446.483 51.792L436.763 24.936H427.187V78ZM488.033 94.56C496.385 94.56 500.561 88.872 503.657 80.376L518.201 38.4H510.137L503.801 58.776C502.793 62.376 501.713 66.336 500.705 69.936H500.345C499.121 66.264 497.897 62.304 496.745 58.776L489.401 38.4H480.905L496.601 77.712L495.809 80.448C494.369 84.696 491.849 87.864 487.529 87.864C486.521 87.864 485.369 87.504 484.649 87.288L483.065 93.768C484.433 94.272 486.017 94.56 488.033 94.56ZM562.953 78.936C569.793 78.936 575.193 76.2 579.441 71.304L574.977 66.048C571.809 69.504 568.137 71.664 563.241 71.664C553.881 71.664 547.977 63.96 547.977 51.36C547.977 38.904 554.313 31.272 563.457 31.272C567.777 31.272 571.089 33.216 573.825 36.024L578.361 30.696C575.121 27.168 569.937 24 563.313 24C549.921 24 539.409 34.368 539.409 51.648C539.409 69 549.633 78.936 562.953 78.936ZM597.476 78.936C602.228 78.936 606.476 76.56 610.076 73.464H610.364L611.012 78H617.78V54.168C617.78 43.656 613.244 37.392 603.38 37.392C597.044 37.392 591.5 39.984 587.396 42.576L590.492 48.192C593.876 46.032 597.764 44.16 601.94 44.16C607.772 44.16 609.428 48.192 609.5 52.8C593.012 54.6 585.812 58.992 585.812 67.488C585.812 74.472 590.636 78.936 597.476 78.936ZM599.996 72.384C596.468 72.384 593.804 70.8 593.804 66.912C593.804 62.448 597.764 59.424 609.5 58.056V67.776C606.26 70.728 603.452 72.384 599.996 72.384ZM640.258 78.936C650.05 78.936 655.306 73.536 655.306 66.912C655.306 59.424 649.186 56.976 643.642 54.888C639.322 53.304 635.434 52.008 635.434 48.624C635.434 45.888 637.45 43.728 641.842 43.728C645.082 43.728 647.89 45.168 650.626 47.184L654.514 42.072C651.346 39.552 646.954 37.392 641.698 37.392C632.914 37.392 627.586 42.36 627.586 48.984C627.586 55.68 633.418 58.488 638.746 60.504C642.994 62.16 647.458 63.744 647.458 67.344C647.458 70.368 645.226 72.672 640.474 72.672C636.226 72.672 632.77 70.872 629.242 68.136L625.354 73.464C629.242 76.632 634.786 78.936 640.258 78.936ZM675.826 78.936C678.706 78.936 681.37 78.216 683.602 77.496L682.09 71.376C680.938 71.88 679.21 72.312 677.842 72.312C673.738 72.312 672.082 69.864 672.082 65.112V45.024H682.378V38.4H672.082V27.456H665.17L664.234 38.4L658.042 38.832V45.024H663.802V65.04C663.802 73.392 666.898 78.936 675.826 78.936Z" fill="white"/>
<path d="M288.908 152.216V154.52H283.292V152.216H288.908ZM288.908 161.144H283.292V158.744H288.908V161.144ZM277.916 154.52H267.212V158.744H277.916V161.144H269.612V165.416H277.916V167.768H269.324V171.8H277.916V174.152H267.404V178.52H277.916V181.784H283.292V178.52H296.012V174.152H283.292V171.8H294.476V167.768H283.292V165.416H293.9V158.744H296.54V154.52H293.9V147.896H283.292V144.392H277.916V147.896H269.852V152.216H277.916V154.52ZM264.764 160.472L263.804 160.568H262.124C264.236 157.016 266.348 152.84 268.172 148.568L264.764 146.216L262.844 146.984H253.964V151.928H261.02C259.34 155.768 257.468 159.032 256.748 160.088C255.74 161.72 254.396 163.064 253.436 163.304C254.156 164.408 255.26 166.616 255.644 167.672C255.644 167.048 257.084 166.136 258.188 165.56H262.364C261.932 168.728 261.308 171.512 260.492 173.96C259.58 172.376 258.812 170.504 258.14 168.344L253.964 169.784C255.116 173.576 256.508 176.6 258.236 179.096C256.7 181.784 254.828 183.896 252.476 185.48C253.676 186.152 255.788 188.12 256.556 189.224C258.62 187.688 260.444 185.72 261.932 183.176C266.876 187.256 273.404 188.264 281.468 188.264H295.58C295.916 186.728 296.78 184.232 297.596 183.032C294.332 183.176 284.396 183.176 281.612 183.176C274.604 183.128 268.604 182.312 264.236 178.52C266.06 173.96 267.308 168.2 267.932 161.192L264.764 160.472ZM342.956 152.936H321.884L327.02 151.448C326.492 149.384 325.436 146.216 324.428 143.816L318.716 145.256C319.58 147.608 320.54 150.776 321.02 152.936H303.596V158.696H342.956V152.936ZM319.676 178.856C318.86 173.72 317.132 166.136 315.308 160.088L309.548 161.48C311.18 167.432 313.004 175.304 313.532 180.44L319.676 178.856ZM331.148 181.592C333.308 176.024 335.804 168.44 337.628 161.48L331.148 160.232C329.9 167 327.356 175.736 324.956 181.592H301.436V187.4H344.972V181.592H331.148ZM370.028 170.408C369.02 169.208 364.412 164.552 362.972 163.4V163.112H370.076V157.784H362.972V151.448C365.564 150.872 368.06 150.296 370.22 149.528L367.244 144.776C362.684 146.504 355.724 148.04 349.58 148.856C350.156 150.104 350.828 152.024 351.02 153.32C353.084 153.08 355.244 152.84 357.452 152.456V157.784H349.772V163.112H356.492C354.476 167.816 351.308 172.904 348.236 175.976C349.148 177.464 350.492 179.864 351.02 181.544C353.372 179 355.532 175.208 357.452 171.176V189.176H362.972V169.256C364.46 171.32 365.9 173.672 366.716 175.112L370.028 170.408ZM393.884 185.96C392.732 180.2 389.372 171.176 386.396 164.168L381.116 166.04C382.556 169.736 384.092 173.912 385.292 177.896L374.684 179.384C377.9 169.976 381.068 158.264 383.036 146.84L376.844 145.736C375.02 157.832 371.18 171.272 369.836 174.872C368.492 178.616 367.628 180.584 366.14 181.112C366.812 182.792 367.82 185.624 368.06 186.728C369.788 185.864 372.14 185.384 386.828 183.08C387.356 185 387.74 186.824 388.028 188.36L393.884 185.96ZM415.436 144.392C415.244 152.504 416.156 174.008 396.668 184.424C398.588 185.72 400.412 187.544 401.42 189.08C411.404 183.224 416.444 174.536 419.084 166.088C421.868 174.344 427.196 183.704 437.852 188.792C438.62 187.16 440.252 185.24 442.028 183.848C425.276 176.456 422.348 158.36 421.676 151.88C421.868 149 421.964 146.408 422.012 144.392H415.436ZM452.012 179.192V169.784H459.644V179.192H452.012ZM459.644 164.84H452.012V157.064H459.644V164.84ZM474.908 151.736C475.628 149.72 476.252 147.704 476.78 145.64L471.308 144.392C469.916 150.008 467.612 155.816 464.828 159.848V152.072H457.388C458.204 150.008 459.068 147.608 459.884 145.208L453.644 144.344C453.452 146.6 452.876 149.672 452.252 152.072H446.828V187.736H452.012V184.232H464.828V161.816C466.124 162.68 467.756 163.784 468.524 164.504C470.012 162.44 471.5 159.8 472.748 156.92H483.02C482.492 173.864 481.868 181.064 480.476 182.6C479.852 183.224 479.324 183.416 478.364 183.416C477.116 183.416 474.284 183.416 471.212 183.128C472.22 184.712 472.988 187.112 473.084 188.696C475.916 188.792 478.796 188.84 480.62 188.6C482.54 188.264 483.884 187.736 485.228 185.96C487.196 183.416 487.724 175.784 488.348 154.328C488.396 153.656 488.396 151.736 488.396 151.736H474.908ZM480.428 173.624C478.94 170.84 475.772 166.28 473.372 162.968L468.908 165.512C471.26 169.016 474.236 173.72 475.58 176.6L480.428 173.624ZM495.548 185H502.652V172.376H507.404C515.036 172.376 521.132 168.728 521.132 160.616C521.132 152.216 515.084 149.432 507.212 149.432H495.548V185ZM502.652 166.76V155.096H506.684C511.58 155.096 514.172 156.488 514.172 160.616C514.172 164.696 511.82 166.76 506.924 166.76H502.652ZM537.001 185.672C543.721 185.672 549.913 180.488 549.913 171.56C549.913 162.632 543.721 157.448 537.001 157.448C530.281 157.448 524.089 162.632 524.089 171.56C524.089 180.488 530.281 185.672 537.001 185.672ZM537.001 179.912C533.353 179.912 531.289 176.648 531.289 171.56C531.289 166.52 533.353 163.208 537.001 163.208C540.649 163.208 542.713 166.52 542.713 171.56C542.713 176.648 540.649 179.912 537.001 179.912ZM565.271 185.672C568.055 185.672 570.743 184.136 572.711 182.216H572.903L573.431 185H579.143V146.696H572.135V156.152L572.375 160.376C570.455 158.6 568.583 157.448 565.559 157.448C559.751 157.448 554.279 162.824 554.279 171.56C554.279 180.392 558.599 185.672 565.271 185.672ZM567.095 179.864C563.543 179.864 561.527 177.08 561.527 171.512C561.527 166.136 564.071 163.256 567.095 163.256C568.775 163.256 570.503 163.784 572.135 165.272V177.08C570.551 179.096 568.967 179.864 567.095 179.864ZM598.13 185.672C601.106 185.672 604.37 184.664 606.962 182.408L604.13 177.752C602.642 179 600.818 179.912 598.898 179.912C595.058 179.912 592.226 176.648 592.226 171.56C592.226 166.52 595.01 163.208 599.138 163.208C600.626 163.208 601.874 163.832 603.218 164.984L606.578 160.424C604.61 158.744 602.066 157.448 598.754 157.448C591.458 157.448 585.026 162.632 585.026 171.56C585.026 180.488 590.69 185.672 598.13 185.672ZM618.08 185.672C621.152 185.672 623.84 184.136 626.192 182.12H626.384L626.864 185H632.624V169.304C632.624 161.528 629.12 157.448 622.304 157.448C618.08 157.448 614.24 159.032 611.072 161L613.616 165.656C616.112 164.216 618.512 163.112 621.008 163.112C624.32 163.112 625.472 165.128 625.616 167.768C614.768 168.92 610.112 171.944 610.112 177.704C610.112 182.264 613.28 185.672 618.08 185.672ZM620.384 180.152C618.32 180.152 616.832 179.24 616.832 177.128C616.832 174.728 619.04 172.904 625.616 172.088V177.512C623.888 179.192 622.4 180.152 620.384 180.152ZM647.495 185.672C654.503 185.672 658.199 181.88 658.199 177.176C658.199 172.184 654.263 170.408 650.711 169.064C647.879 168.008 645.383 167.288 645.383 165.32C645.383 163.784 646.535 162.728 648.983 162.728C650.951 162.728 652.823 163.64 654.743 165.032L657.911 160.76C655.703 159.08 652.679 157.448 648.791 157.448C642.647 157.448 638.759 160.856 638.759 165.656C638.759 170.168 642.551 172.232 645.959 173.528C648.791 174.632 651.575 175.544 651.575 177.56C651.575 179.24 650.375 180.392 647.687 180.392C645.191 180.392 642.887 179.336 640.487 177.464L637.271 181.88C639.959 184.088 643.895 185.672 647.495 185.672ZM672.296 185.672C674.648 185.672 676.52 185.144 677.96 184.664L676.808 179.528C676.088 179.816 675.032 180.104 674.168 180.104C671.768 180.104 670.52 178.664 670.52 175.592V163.688H677.144V158.12H670.52V150.872H664.664L663.848 158.12L659.672 158.456V163.688H663.464V175.592C663.464 181.592 665.912 185.672 672.296 185.672Z" fill="white"/>
<path d="M20 2H205C214.941 2 223 10.0589 223 20V205C223 214.941 214.941 223 205 223H20C10.0589 223 2 214.941 2 205V20C2 10.0589 10.0589 2 20 2Z" fill="#FF8738" stroke="white" stroke-width="4"/>
<circle cx="113" cy="113" r="91.5" stroke="white" stroke-width="7"/>
<circle cx="113" cy="113" r="71.5" stroke="white" stroke-width="7"/>
<path d="M63 160L89.5 49L119 180.5L163.5 67.5" stroke="white" stroke-width="4" stroke-linecap="round" stroke-linejoin="round"/>
<path d="M173 113C173 127.912 160.912 140 146 140C131.088 140 119 127.912 119 113C119 98.0883 131.088 86 146 86C160.912 86 173 98.0883 173 113Z" fill="white"/>
<circle cx="77" cy="113" r="15" fill="white"/>
<line x1="90" y1="113" x2="120" y2="113" stroke="white" stroke-width="4"/>
<line x1="114" y1="111" x2="114" y2="99" stroke="white" stroke-width="2"/>
<line x1="110" y1="125" x2="110" y2="113" stroke="white" stroke-width="2"/>
<line x1="96" y1="125" x2="96" y2="113" stroke="white" stroke-width="2"/>
<rect x="241" y="106" width="74.7649" height="19" fill="#FD3E49"/>
<rect x="315.765" y="106" width="74.7649" height="19" fill="#FF8738"/>
<rect x="315.765" y="106" width="74.7649" height="19" fill="#FF8738"/>
<rect x="315.765" y="106" width="74.7649" height="19" fill="#FF8738"/>
<rect x="466.705" y="106" width="74.7649" height="19" fill="#00A752"/>
<rect x="542.881" y="106" width="74.7649" height="19" fill="#007BEE"/>
<rect x="616.235" y="106" width="74.7649" height="19" fill="#9B49DF"/>
<path d="M390.53 106H465.295V125H390.53V106Z" fill="#FFA900"/>
<path d="M390.53 106H465.295V125H390.53V106Z" fill="#FFA900"/>
</g>
<defs>
<clipPath id="clip0">
<rect width="700" height="230" fill="white"/>
</clipPath>
</defs>
</svg>
