<svg width="100" height="48" viewBox="0 0 100 48" fill="none" xmlns="http://www.w3.org/2000/svg">
<g clip-path="url(#clip0_328_2)">
<g clip-path="url(#clip1_328_2)">
<circle cx="24.1068" cy="24.1068" r="19.2667" stroke="#FD3E49" stroke-width="2"/>
<circle cx="24.1067" cy="24.1067" r="15.5" stroke="#FD3E49"/>
<path d="M12.75 35.0147L18.7817 9.375L25.4963 39.75L35.625 13.6483" stroke="#FD3E49" stroke-linecap="round" stroke-linejoin="round"/>
<path d="M36.9067 24.1067C36.9067 27.2878 34.3279 29.8667 31.1467 29.8667C27.9656 29.8667 25.3867 27.2878 25.3867 24.1067C25.3867 20.9255 27.9656 18.3467 31.1467 18.3467C34.3279 18.3467 36.9067 20.9255 36.9067 24.1067Z" fill="#FD3E49"/>
<circle cx="16.4266" cy="24.1067" r="3.2" fill="#FD3E49"/>
</g>
<path d="M63.822 22.14C63.0286 22.14 62.3473 22.0047 61.778 21.734C61.2086 21.454 60.77 21.0293 60.462 20.46C60.154 19.8813 59.9813 19.158 59.944 18.29C59.9346 17.8793 59.93 17.4873 59.93 17.114C59.93 16.7313 59.9346 16.3347 59.944 15.924C59.9813 15.0653 60.1586 14.3513 60.476 13.782C60.8026 13.2033 61.2506 12.774 61.82 12.494C62.3986 12.2047 63.066 12.06 63.822 12.06C64.5873 12.06 65.2546 12.2047 65.824 12.494C66.4026 12.774 66.8553 13.2033 67.182 13.782C67.5086 14.3513 67.686 15.0653 67.714 15.924C67.7326 16.3347 67.742 16.7313 67.742 17.114C67.742 17.4873 67.7326 17.8793 67.714 18.29C67.686 19.158 67.5133 19.8813 67.196 20.46C66.888 21.0293 66.4493 21.454 65.88 21.734C65.3106 22.0047 64.6246 22.14 63.822 22.14ZM63.822 20.95C64.5406 20.95 65.124 20.7353 65.572 20.306C66.0293 19.8767 66.2766 19.1813 66.314 18.22C66.3326 17.8 66.342 17.4267 66.342 17.1C66.342 16.764 66.3326 16.3907 66.314 15.98C66.2953 15.336 66.174 14.8133 65.95 14.412C65.7353 14.0107 65.446 13.7167 65.082 13.53C64.718 13.3433 64.298 13.25 63.822 13.25C63.3646 13.25 62.954 13.3433 62.59 13.53C62.226 13.7167 61.932 14.0107 61.708 14.412C61.4933 14.8133 61.372 15.336 61.344 15.98C61.3346 16.3907 61.33 16.764 61.33 17.1C61.33 17.4267 61.3346 17.8 61.344 18.22C61.3813 19.1813 61.6286 19.8767 62.086 20.306C62.5433 20.7353 63.122 20.95 63.822 20.95ZM69.5026 22C69.4092 22 69.3299 21.972 69.2646 21.916C69.2086 21.8507 69.1806 21.7713 69.1806 21.678V15.042C69.1806 14.9487 69.2086 14.874 69.2646 14.818C69.3299 14.7527 69.4092 14.72 69.5026 14.72H70.1606C70.2539 14.72 70.3286 14.7527 70.3846 14.818C70.4499 14.874 70.4826 14.9487 70.4826 15.042V15.658C70.7252 15.3407 71.0286 15.084 71.3926 14.888C71.7659 14.6827 72.2419 14.58 72.8206 14.58C73.4272 14.58 73.9406 14.7153 74.3606 14.986C74.7899 15.2473 75.1119 15.616 75.3266 16.092C75.5412 16.5587 75.6486 17.1047 75.6486 17.73V21.678C75.6486 21.7713 75.6206 21.8507 75.5646 21.916C75.5086 21.972 75.4339 22 75.3406 22H74.6406C74.5472 22 74.4679 21.972 74.4026 21.916C74.3466 21.8507 74.3186 21.7713 74.3186 21.678V17.8C74.3186 17.1467 74.1599 16.638 73.8426 16.274C73.5252 15.9007 73.0586 15.714 72.4426 15.714C71.8639 15.714 71.3972 15.9007 71.0426 16.274C70.6972 16.638 70.5246 17.1467 70.5246 17.8V21.678C70.5246 21.7713 70.4919 21.8507 70.4266 21.916C70.3706 21.972 70.2959 22 70.2026 22H69.5026ZM77.5868 22C77.4935 22 77.4141 21.972 77.3488 21.916C77.2928 21.8507 77.2648 21.7713 77.2648 21.678V12.382C77.2648 12.2887 77.2928 12.214 77.3488 12.158C77.4141 12.0927 77.4935 12.06 77.5868 12.06H78.2448C78.3475 12.06 78.4268 12.0927 78.4828 12.158C78.5388 12.214 78.5668 12.2887 78.5668 12.382V21.678C78.5668 21.7713 78.5388 21.8507 78.4828 21.916C78.4268 21.972 78.3475 22 78.2448 22H77.5868ZM81.5091 24.66C81.4344 24.66 81.3691 24.632 81.3131 24.576C81.2571 24.52 81.2291 24.4547 81.2291 24.38C81.2291 24.3427 81.2338 24.3053 81.2431 24.268C81.2524 24.2307 81.2711 24.184 81.2991 24.128L82.3771 21.566L79.7031 15.252C79.6564 15.14 79.6331 15.0607 79.6331 15.014C79.6331 14.93 79.6611 14.86 79.7171 14.804C79.7731 14.748 79.8431 14.72 79.9271 14.72H80.6131C80.7064 14.72 80.7811 14.7433 80.8371 14.79C80.8931 14.8367 80.9304 14.8927 80.9491 14.958L83.0771 20.054L85.2611 14.958C85.2891 14.8927 85.3264 14.8367 85.3731 14.79C85.4291 14.7433 85.5084 14.72 85.6111 14.72H86.2691C86.3531 14.72 86.4231 14.748 86.4791 14.804C86.5351 14.86 86.5631 14.9253 86.5631 15C86.5631 15.0467 86.5398 15.1307 86.4931 15.252L82.5171 24.422C82.4891 24.4873 82.4471 24.5433 82.3911 24.59C82.3444 24.6367 82.2698 24.66 82.1671 24.66H81.5091ZM51.3566 37C51.2633 37 51.1839 36.972 51.1186 36.916C51.0626 36.8507 51.0346 36.7713 51.0346 36.678V27.536C51.0346 27.4333 51.0626 27.354 51.1186 27.298C51.1839 27.2327 51.2633 27.2 51.3566 27.2H52.0566C52.1686 27.2 52.2526 27.228 52.3086 27.284C52.3646 27.34 52.3973 27.3867 52.4066 27.424L55.3746 33.08L58.3566 27.424C58.3753 27.3867 58.4079 27.34 58.4546 27.284C58.5106 27.228 58.5946 27.2 58.7066 27.2H59.3926C59.4953 27.2 59.5746 27.2327 59.6306 27.298C59.6959 27.354 59.7286 27.4333 59.7286 27.536V36.678C59.7286 36.7713 59.6959 36.8507 59.6306 36.916C59.5746 36.972 59.4953 37 59.3926 37H58.7066C58.6133 37 58.5339 36.972 58.4686 36.916C58.4126 36.8507 58.3846 36.7713 58.3846 36.678V29.79L56.0466 34.354C56.0093 34.4473 55.9533 34.522 55.8786 34.578C55.8039 34.6247 55.7106 34.648 55.5986 34.648H55.1646C55.0433 34.648 54.9453 34.6247 54.8706 34.578C54.8053 34.522 54.7493 34.4473 54.7026 34.354L52.3646 29.79V36.678C52.3646 36.7713 52.3319 36.8507 52.2666 36.916C52.2106 36.972 52.1359 37 52.0426 37H51.3566ZM62.8218 39.66C62.7472 39.66 62.6818 39.632 62.6258 39.576C62.5698 39.52 62.5418 39.4547 62.5418 39.38C62.5418 39.3427 62.5465 39.3053 62.5558 39.268C62.5652 39.2307 62.5838 39.184 62.6118 39.128L63.6898 36.566L61.0158 30.252C60.9692 30.14 60.9458 30.0607 60.9458 30.014C60.9458 29.93 60.9738 29.86 61.0298 29.804C61.0858 29.748 61.1558 29.72 61.2398 29.72H61.9258C62.0192 29.72 62.0938 29.7433 62.1498 29.79C62.2058 29.8367 62.2432 29.8927 62.2618 29.958L64.3898 35.054L66.5738 29.958C66.6018 29.8927 66.6392 29.8367 66.6858 29.79C66.7418 29.7433 66.8212 29.72 66.9238 29.72H67.5818C67.6658 29.72 67.7358 29.748 67.7918 29.804C67.8478 29.86 67.8758 29.9253 67.8758 30C67.8758 30.0467 67.8525 30.1307 67.8058 30.252L63.8298 39.422C63.8018 39.4873 63.7598 39.5433 63.7038 39.59C63.6572 39.6367 63.5825 39.66 63.4798 39.66H62.8218ZM72.5488 37.14C71.6901 37.14 70.9761 36.9813 70.4068 36.664C69.8468 36.3467 69.4221 35.9033 69.1328 35.334C68.8434 34.7647 68.6848 34.102 68.6568 33.346C68.6474 32.9633 68.6428 32.5527 68.6428 32.114C68.6428 31.6753 68.6474 31.2553 68.6568 30.854C68.6848 30.098 68.8434 29.4353 69.1328 28.866C69.4221 28.2967 69.8468 27.8533 70.4068 27.536C70.9761 27.2187 71.6901 27.06 72.5488 27.06C73.1928 27.06 73.7574 27.1487 74.2428 27.326C74.7281 27.5033 75.1294 27.7413 75.4468 28.04C75.7734 28.3387 76.0208 28.6747 76.1888 29.048C76.3568 29.412 76.4501 29.79 76.4688 30.182C76.4781 30.266 76.4501 30.336 76.3848 30.392C76.3288 30.448 76.2588 30.476 76.1748 30.476H75.4048C75.3208 30.476 75.2461 30.4527 75.1808 30.406C75.1248 30.3593 75.0828 30.2753 75.0548 30.154C74.8961 29.426 74.5974 28.9267 74.1588 28.656C73.7294 28.3853 73.1881 28.25 72.5348 28.25C71.7881 28.25 71.1954 28.4647 70.7568 28.894C70.3181 29.314 70.0801 29.9907 70.0428 30.924C70.0148 31.6893 70.0148 32.4733 70.0428 33.276C70.0801 34.2093 70.3181 34.8907 70.7568 35.32C71.1954 35.74 71.7881 35.95 72.5348 35.95C73.1881 35.95 73.7294 35.8147 74.1588 35.544C74.5974 35.2733 74.8961 34.774 75.0548 34.046C75.0828 33.9247 75.1248 33.8407 75.1808 33.794C75.2461 33.7473 75.3208 33.724 75.4048 33.724H76.1748C76.2588 33.724 76.3288 33.752 76.3848 33.808C76.4501 33.864 76.4781 33.934 76.4688 34.018C76.4501 34.41 76.3568 34.7927 76.1888 35.166C76.0208 35.53 75.7734 35.8613 75.4468 36.16C75.1294 36.4587 74.7281 36.6967 74.2428 36.874C73.7574 37.0513 73.1928 37.14 72.5488 37.14ZM79.773 37.14C79.3063 37.14 78.8817 37.0467 78.499 36.86C78.1163 36.6733 77.8083 36.4213 77.575 36.104C77.3417 35.7867 77.225 35.4273 77.225 35.026C77.225 34.382 77.4863 33.8687 78.009 33.486C78.5317 33.1033 79.213 32.8513 80.053 32.73L82.139 32.436V32.03C82.139 31.582 82.0083 31.232 81.747 30.98C81.495 30.728 81.0797 30.602 80.501 30.602C80.081 30.602 79.7403 30.686 79.479 30.854C79.227 31.022 79.0497 31.2367 78.947 31.498C78.891 31.638 78.793 31.708 78.653 31.708H78.023C77.9203 31.708 77.841 31.68 77.785 31.624C77.7383 31.5587 77.715 31.484 77.715 31.4C77.715 31.26 77.7663 31.0873 77.869 30.882C77.981 30.6767 78.149 30.476 78.373 30.28C78.597 30.084 78.8817 29.9207 79.227 29.79C79.5817 29.65 80.011 29.58 80.515 29.58C81.075 29.58 81.5463 29.6547 81.929 29.804C82.3117 29.944 82.6103 30.1353 82.825 30.378C83.049 30.6207 83.2077 30.896 83.301 31.204C83.4037 31.512 83.455 31.8247 83.455 32.142V36.678C83.455 36.7713 83.4223 36.8507 83.357 36.916C83.301 36.972 83.2263 37 83.133 37H82.489C82.3863 37 82.307 36.972 82.251 36.916C82.195 36.8507 82.167 36.7713 82.167 36.678V36.076C82.0457 36.244 81.8823 36.412 81.677 36.58C81.4717 36.7387 81.215 36.874 80.907 36.986C80.599 37.0887 80.221 37.14 79.773 37.14ZM80.067 36.09C80.4497 36.09 80.7997 36.0107 81.117 35.852C81.4343 35.684 81.6817 35.4273 81.859 35.082C82.0457 34.7367 82.139 34.3027 82.139 33.78V33.388L80.515 33.626C79.8523 33.7193 79.353 33.878 79.017 34.102C78.681 34.3167 78.513 34.592 78.513 34.928C78.513 35.1893 78.5877 35.4087 78.737 35.586C78.8957 35.754 79.0917 35.88 79.325 35.964C79.5677 36.048 79.815 36.09 80.067 36.09ZM87.5676 37.14C87.0449 37.14 86.5969 37.0747 86.2236 36.944C85.8503 36.8133 85.5469 36.6547 85.3136 36.468C85.0803 36.2813 84.9029 36.0947 84.7816 35.908C84.6696 35.7213 84.6089 35.572 84.5996 35.46C84.5903 35.3573 84.6229 35.278 84.6976 35.222C84.7723 35.166 84.8469 35.138 84.9216 35.138H85.5376C85.5936 35.138 85.6356 35.1473 85.6636 35.166C85.7009 35.1753 85.7476 35.2127 85.8036 35.278C85.9249 35.4087 86.0603 35.5393 86.2096 35.67C86.3589 35.8007 86.5409 35.908 86.7556 35.992C86.9796 36.076 87.2549 36.118 87.5816 36.118C88.0576 36.118 88.4496 36.0293 88.7576 35.852C89.0656 35.6653 89.2196 35.3947 89.2196 35.04C89.2196 34.8067 89.1543 34.62 89.0236 34.48C88.9023 34.34 88.6783 34.214 88.3516 34.102C88.0343 33.99 87.5956 33.8733 87.0356 33.752C86.4756 33.6213 86.0323 33.4627 85.7056 33.276C85.3789 33.08 85.1456 32.8513 85.0056 32.59C84.8656 32.3193 84.7956 32.016 84.7956 31.68C84.7956 31.3347 84.8983 31.0033 85.1036 30.686C85.3089 30.3593 85.6076 30.0933 85.9996 29.888C86.4009 29.6827 86.9003 29.58 87.4976 29.58C87.9829 29.58 88.3983 29.6407 88.7436 29.762C89.0889 29.8833 89.3736 30.0373 89.5976 30.224C89.8216 30.4013 89.9896 30.5787 90.1016 30.756C90.2136 30.9333 90.2743 31.0827 90.2836 31.204C90.2929 31.2973 90.2649 31.3767 90.1996 31.442C90.1343 31.498 90.0596 31.526 89.9756 31.526H89.3876C89.3223 31.526 89.2663 31.512 89.2196 31.484C89.1823 31.456 89.1449 31.4233 89.1076 31.386C89.0143 31.2647 88.9023 31.1433 88.7716 31.022C88.6503 30.9007 88.4869 30.8027 88.2816 30.728C88.0856 30.644 87.8243 30.602 87.4976 30.602C87.0309 30.602 86.6809 30.7 86.4476 30.896C86.2143 31.092 86.0976 31.3393 86.0976 31.638C86.0976 31.8153 86.1489 31.974 86.2516 32.114C86.3543 32.254 86.5503 32.38 86.8396 32.492C87.1289 32.604 87.5583 32.7253 88.1276 32.856C88.7436 32.9773 89.2289 33.1407 89.5836 33.346C89.9383 33.5513 90.1903 33.7893 90.3396 34.06C90.4889 34.3307 90.5636 34.6433 90.5636 34.998C90.5636 35.39 90.4469 35.7493 90.2136 36.076C89.9896 36.4027 89.6536 36.664 89.2056 36.86C88.7669 37.0467 88.2209 37.14 87.5676 37.14ZM94.5926 37C94.07 37 93.6453 36.902 93.3186 36.706C92.992 36.5007 92.754 36.216 92.6046 35.852C92.4553 35.4787 92.3806 35.04 92.3806 34.536V30.84H91.2886C91.1953 30.84 91.116 30.812 91.0506 30.756C90.9946 30.6907 90.9666 30.6113 90.9666 30.518V30.042C90.9666 29.9487 90.9946 29.874 91.0506 29.818C91.116 29.7527 91.1953 29.72 91.2886 29.72H92.3806V27.382C92.3806 27.2887 92.4086 27.214 92.4646 27.158C92.53 27.0927 92.6093 27.06 92.7026 27.06H93.3606C93.454 27.06 93.5286 27.0927 93.5846 27.158C93.65 27.214 93.6826 27.2887 93.6826 27.382V29.72H95.4186C95.512 29.72 95.5866 29.7527 95.6426 29.818C95.708 29.874 95.7406 29.9487 95.7406 30.042V30.518C95.7406 30.6113 95.708 30.6907 95.6426 30.756C95.5866 30.812 95.512 30.84 95.4186 30.84H93.6826V34.438C93.6826 34.8767 93.7573 35.222 93.9066 35.474C94.056 35.726 94.322 35.852 94.7046 35.852H95.5586C95.652 35.852 95.7266 35.8847 95.7826 35.95C95.848 36.006 95.8806 36.0807 95.8806 36.174V36.678C95.8806 36.7713 95.848 36.8507 95.7826 36.916C95.7266 36.972 95.652 37 95.5586 37H94.5926Z" fill="#FD3E49"/>
<path d="M60.5 17.5H51.5" stroke="#FD3E49" stroke-width="2"/>
<circle cx="64" cy="17" r="2" fill="#FD3E49"/>
</g>
<defs>
<clipPath id="clip0_328_2">
<rect width="100" height="48" fill="white"/>
</clipPath>
<clipPath id="clip1_328_2">
<rect width="48" height="48" fill="white"/>
</clipPath>
</defs>
</svg>
